<?xml version="1.0" encoding="utf-8"?>
<!-- Generator: Adobe Illustrator 15.0.0, SVG Export Plug-In . SVG Version: 6.00 Build 0)  -->
<!DOCTYPE svg PUBLIC "-//W3C//DTD SVG 1.1//EN" "http://www.w3.org/Graphics/SVG/1.1/DTD/svg11.dtd">
<svg version="1.1" id="Warstwa_1" xmlns="http://www.w3.org/2000/svg" xmlns:xlink="http://www.w3.org/1999/xlink" x="0px" y="0px"
	 width="978.386px" height="305.016px" viewBox="0 0 978.386 305.016" enable-background="new 0 0 978.386 305.016"
	 xml:space="preserve">
<g id="logo-symbol">
	<path fill="#E9B776" d="M81.791,71.59c2.397,3.139,6.884,3.738,10.021,1.342c17.561-13.417,38.549-20.508,60.696-20.508
		c55.188,0,100.086,44.896,100.086,100.084c0,55.188-44.897,100.083-100.086,100.083c-55.185,0-100.083-44.897-100.083-100.083
		c0-22.148,7.091-43.137,20.509-60.698c2.397-3.135,1.797-7.624-1.341-10.02c-3.137-2.397-7.624-1.797-10.021,1.341
		c-15.338,20.075-23.444,44.064-23.444,69.376c0,63.07,51.311,114.382,114.379,114.382c63.07,0,114.383-51.313,114.383-114.382
		c0-63.069-51.312-114.382-114.383-114.382c-25.311,0-49.301,8.105-69.374,23.442C79.996,63.967,79.394,68.453,81.791,71.59
		L81.791,71.59z M152.508,0C68.417,0,0,68.414,0,152.508s68.415,152.508,152.508,152.508c84.095,0,152.511-68.414,152.511-152.508
		S236.603,0,152.508,0z M152.508,290.718c-76.208,0-138.21-62-138.21-138.211c0-76.209,62.001-138.211,138.21-138.211
		c76.21,0,138.213,62.001,138.213,138.211C290.719,228.717,228.718,290.718,152.508,290.718z"/>
</g>
<g>
	<path d="M437.315,108.608c3.794,0,6.712,1.359,8.751,4.078c1.642,2.153,2.464,4.758,2.464,7.816c0,5.495-1.841,11.754-5.522,18.776
		c-3.229,6.062-7.251,11.499-12.064,16.313c-3.173,3.115-5.665,4.673-7.477,4.673c-1.189,0-2.294-0.595-3.313-1.784
		c-0.737-0.85-1.104-1.813-1.104-2.889c0-1.982,1.727-4.248,5.183-6.797c4.871-3.624,8.751-7.589,11.64-11.895
		c4.248-6.23,6.372-11.498,6.372-15.803c0-1.755-0.382-3.059-1.147-3.908s-1.912-1.274-3.441-1.274
		c-3.116,0-7.534,2.266-13.254,6.797c-6.514,5.098-13.396,12.037-20.646,20.815c-9.233,11.159-16.257,22.146-21.07,32.965
		c-4.985,11.215-7.477,20.787-7.477,28.717c0,3.795,1.104,7.023,3.313,9.686c2.435,3.003,5.408,4.503,8.921,4.503
		c6.117,0,13.819-4.758,23.109-14.273c2.774-2.889,6.145-7.08,10.11-12.574c2.604-3.512,4.276-6.003,5.013-7.477
		c0.85-1.642,1.84-2.464,2.974-2.464c1.245,0,1.869,0.595,1.869,1.784c0,2.549-3.173,8.271-9.516,17.162
		c-5.268,7.421-11.074,13.48-17.417,18.182c-7.137,5.268-13.878,7.901-20.221,7.901c-6.627,0-11.754-2.974-15.378-8.921
		c-2.322-3.794-3.483-8.127-3.483-12.999c0-12.234,5.777-27.668,17.332-46.304c9.855-15.858,20.249-28.632,31.181-38.317
		C422.475,112.771,430.574,108.608,437.315,108.608z"/>
	<path d="M493.559,170.97c-12.858,2.549-23.619,5.552-32.285,9.006c-5.212,7.646-10.932,16.822-17.162,27.527l-4.503,7.901
		c-0.794,1.416-2.01,3.455-3.653,6.117c-1.812,3.114-3.709,4.673-5.692,4.673c-1.075,0-1.982-0.425-2.719-1.274
		c-0.735-0.735-1.104-1.558-1.104-2.464c0-1.585,2.124-6.088,6.372-13.509c2.323-4.021,5.833-9.714,10.535-17.077
		c1.812-2.832,3.256-5.153,4.333-6.967c-3.398,0.964-6.514,2.068-9.346,3.313c-1.359,0.624-2.492,0.935-3.398,0.935
		c-1.132,0-2.01-0.51-2.634-1.529c-0.453-0.623-0.68-1.359-0.68-2.209c0-1.925,0.68-3.284,2.039-4.078
		c2.209-1.359,6.173-2.917,11.895-4.673c4.248-1.359,7.617-2.604,10.11-3.738c1.189-1.473,4.304-5.805,9.346-12.999
		c2.152-3.114,8.269-10.478,18.352-22.09c7.25-8.496,14.727-16.397,22.43-23.704c4.474-4.304,7.901-6.457,10.28-6.457
		c1.473,0,2.747,0.595,3.823,1.784c0.905,1.077,1.359,2.266,1.359,3.568c0,1.586-0.794,4.362-2.379,8.326
		c-2.719,6.967-5.324,14.416-7.816,22.345c-2.153,7.024-3.598,12.404-4.333,16.143c1.02,0,1.699-0.027,2.039-0.085
		c1.643-0.056,3.002-0.085,4.078-0.085c3.284,0,4.928,1.246,4.928,3.738c0,1.076-0.354,2.139-1.063,3.186
		c-0.708,1.049-1.516,1.687-2.421,1.912c-0.34,0.114-1.274,0.17-2.804,0.17c-3.229,0-5.637,0.199-7.222,0.595
		c-1.359,4.022-3.513,14.303-6.457,30.841c-1.529,10.989-2.266,17.729-2.209,20.221c0,4.078-1.219,6.117-3.653,6.117
		c-1.926,0-3.428-0.991-4.503-2.974c-0.794-1.359-1.189-3.199-1.189-5.522c0-7.816,1.387-18.352,4.163-31.605
		C491.831,179.665,492.879,174.538,493.559,170.97z M495.938,161.794c0.51-1.642,1.813-6.032,3.908-13.169
		c0.51-1.869,1.813-5.578,3.908-11.13c2.095-5.72,3.767-10.308,5.013-13.764c-3.683,2.436-7.421,5.665-11.215,9.686
		c-13.368,14.388-22.799,26.14-28.292,35.259c2.095-0.51,6.598-1.784,13.509-3.823C484.751,164.287,489.141,163.268,495.938,161.794
		z"/>
	<path d="M573.932,121.183c-2.945,3.286-6.854,8.723-11.725,16.313c-4.928,7.704-8.468,13.651-10.62,17.842
		c12.234-2.435,20.701-3.653,25.403-3.653c2.265,0,3.993,0.227,5.183,0.68c1.359,0.454,2.039,1.502,2.039,3.144
		c0,3.513-1.983,5.268-5.947,5.268c-0.227,0-0.68,0-1.359,0c-1.699-0.056-2.945-0.085-3.738-0.085
		c-5.607,0-14.925,1.842-27.952,5.522c-8.271,14.218-15.548,31.21-21.835,50.977c-0.85,3.003-2.181,4.503-3.993,4.503
		c-1.586,0-2.918-0.878-3.993-2.634c-0.85-1.303-1.274-2.604-1.274-3.908c0-1.473,1.559-6.457,4.673-14.953
		c5.153-13.989,12.518-28.999,22.09-45.029c6.061-10.025,12.715-20.646,19.966-31.86c-1.926-0.283-2.889-1.359-2.889-3.229
		c0-2.774,2.689-4.898,8.071-6.372c7.477-2.095,14.754-3.709,21.835-4.843c8.042-1.302,14.159-1.954,18.352-1.954
		c6.627,0,9.94,1.671,9.94,5.013c0,1.699-0.765,3.088-2.294,4.163c-0.624,0.454-1.331,0.68-2.124,0.68
		c-0.68,0-1.644-0.085-2.889-0.255c-1.926-0.283-3.598-0.425-5.013-0.425c-3.059,0-8.213,0.595-15.463,1.784
		C583.164,118.663,578.35,119.768,573.932,121.183z"/>
	<path d="M620.576,154.997l3.398-0.595c12.518-2.379,21.24-3.568,26.168-3.568c3.568,0,5.353,1.444,5.353,4.333
		c0,1.813-0.709,3.03-2.124,3.653c-0.964,0.454-2.605,0.736-4.928,0.85c-14.67,0.906-25.828,2.634-33.475,5.183
		c-3.003,4.476-7.392,12.829-13.169,25.063c-3.343,7.137-5.947,13.735-7.816,19.796c1.303-0.453,2.577-0.905,3.823-1.359
		c8.382-2.832,14.557-4.673,18.521-5.522c5.268-1.02,10.224-1.529,14.868-1.529c3.059,0,5.323,0.369,6.797,1.104
		c1.303,0.624,1.954,1.813,1.954,3.568c0,1.756-0.794,2.918-2.379,3.483c-0.736,0.227-2.493,0.369-5.268,0.425
		c-15.01,0.794-28.377,4.475-40.102,11.045c-1.529,0.85-2.833,1.274-3.908,1.274c-1.586,0-3.003-0.82-4.248-2.464
		c-1.075-1.359-1.614-2.747-1.614-4.163c0-1.415,1.784-6.627,5.353-15.633c5.381-13.649,12.715-28.603,22.005-44.859
		c2.774-4.928,8.042-13.225,15.803-24.894c1.755-2.719,3.454-5.38,5.098-7.986c-2.266-0.565-3.398-2.067-3.398-4.503
		c0-1.812,0.905-3.144,2.719-3.993c2.944-1.359,8.609-2.689,16.992-3.993c12.518-1.925,23.138-2.889,31.86-2.889
		c4.928,0,7.392,1.304,7.392,3.908c0,1.813-0.85,3.343-2.549,4.588c-0.85,0.624-2.209,0.935-4.078,0.935
		c-0.114,0-0.765-0.028-1.954-0.085c-0.85,0-1.784,0-2.804,0c-4.078,0-9.97,0.425-17.672,1.274
		c-6.684,0.737-12.434,1.813-17.247,3.229c0.565,0.85,0.85,1.529,0.85,2.039c0,0.964-1.331,3.173-3.993,6.627l-4.078,6.287
		C626.891,144.236,622.84,150.693,620.576,154.997z"/>
	<path d="M737.907,150.069c-3.965,3.003-7.931,5.552-11.895,7.646c-5.382,2.889-8.921,4.333-10.62,4.333
		c-1.813,0-2.719-1.444-2.719-4.333c0-1.02,0.226-1.897,0.68-2.634c0.453-0.68,1.529-1.33,3.229-1.954
		c5.098-2.152,12.518-6.287,22.26-12.404c4.418-2.774,7.532-4.163,9.346-4.163c1.189,0,2.265,0.595,3.229,1.784
		c0.623,0.794,0.935,1.644,0.935,2.549c0,1.417-1.104,3.823-3.313,7.222c-16.369,26.508-27.697,47.323-33.984,62.446
		c-1.529,3.683-2.634,5.977-3.313,6.882c-1.076,1.529-2.153,2.294-3.229,2.294c-1.076,0-2.096-0.65-3.059-1.954
		c-0.566-0.735-0.85-1.529-0.85-2.379c0-3.059,4.361-13.14,13.084-30.246C725.842,169.072,732.583,157.376,737.907,150.069z"/>
	<path d="M804.346,142.083c3.059,1.189,5.338,3.101,6.839,5.735s2.252,5.99,2.252,10.068c0,12.632-4.928,26.055-14.783,40.271
		c-10.705,15.463-20.957,23.194-30.756,23.194c-4.872,0-8.525-2.52-10.96-7.562c-1.585-3.284-2.379-7.25-2.379-11.895
		c0-11.215,4.106-23.052,12.319-35.514c4.248-6.399,9.996-12.999,17.247-19.796c7.59-7.022,13.055-10.535,16.397-10.535
		C803.072,136.051,804.346,138.062,804.346,142.083z M793.301,148.2c-6.627,5.438-12.489,12.064-17.587,19.881
		c-7.307,11.215-10.96,22.062-10.96,32.54c0,3.115,0.425,5.552,1.274,7.307c1.415,2.719,3.369,4.078,5.862,4.078
		c3.908,0,8.581-3.002,14.019-9.006c6.061-6.683,10.818-14.839,14.273-24.469c2.662-7.307,3.993-13.479,3.993-18.521
		c0-3.512-1.076-6.513-3.229-9.006c-1.474-1.755-3.428-2.689-5.862-2.804C794.461,148.2,793.867,148.2,793.301,148.2z"/>
	<path d="M841.134,165.192c4.474,0,6.712,2.351,6.712,7.052c0,4.135-1.614,8.299-4.843,12.489c-2.493,3.173-4.673,4.758-6.542,4.758
		c-1.586,0-2.379-0.905-2.379-2.719c0-0.963,0.226-1.728,0.68-2.294c0.17-0.226,0.85-0.878,2.039-1.954
		c1.02-0.962,2.067-2.407,3.144-4.333c0.735-1.303,1.104-2.35,1.104-3.144c0-0.905-0.51-1.359-1.529-1.359
		c-1.189,0-3.003,0.935-5.438,2.804c-3.853,3.003-7.703,7.703-11.555,14.104c-3.965,6.684-5.947,11.951-5.947,15.803
		c0,1.246,0.368,2.351,1.104,3.313c1.075,1.474,2.52,2.209,4.333,2.209c3.568,0,7.787-2.209,12.659-6.627
		c4.134-3.794,7.617-7.59,10.45-11.385c1.473-2.095,2.747-3.144,3.823-3.144c0.623,0,1.189,0.284,1.699,0.85
		c0.453,0.566,0.68,1.134,0.68,1.699c0,2.096-2.69,6.174-8.071,12.234c-8.553,9.516-16.313,14.273-23.279,14.273
		c-4.192,0-7.392-1.5-9.601-4.503c-1.585-2.209-2.379-4.813-2.379-7.816c0-5.891,2.436-12.715,7.307-20.476
		c4.701-7.42,10.139-13.395,16.313-17.927C835.243,166.496,838.416,165.192,841.134,165.192z"/>
	<path d="M872.57,189.576c4.758-4.983,8.949-8.892,12.574-11.725c5.493-4.248,9.176-6.372,11.045-6.372
		c0.905,0,1.699,0.34,2.379,1.02c0.623,0.624,0.935,1.304,0.935,2.039c0,1.077-0.991,2.833-2.974,5.268
		c-3.059,3.853-5.183,7.137-6.372,9.855c13.254-13.31,22.315-19.966,27.188-19.966c1.02,0,1.897,0.313,2.634,0.935
		c0.793,0.68,1.189,1.529,1.189,2.549c0,1.587-1.219,3.626-3.653,6.117c-10.705,11.045-16.058,20.107-16.058,27.188
		c0,2.889,0.51,4.957,1.529,6.202l2.209,2.804c0.453,0.51,0.68,1.161,0.68,1.954c0,0.906-0.369,1.756-1.104,2.549
		c-0.85,0.906-1.813,1.359-2.889,1.359c-1.869,0-3.598-1.189-5.183-3.568c-1.926-2.832-2.889-6.173-2.889-10.025
		c0-5.153,1.473-10.365,4.418-15.633c1.02-1.869,2.719-4.361,5.098-7.477c-4.814,3.625-9.715,8.61-14.698,14.953
		c-3.398,4.305-6.457,9.12-9.176,14.443c-1.304,2.549-2.833,3.823-4.588,3.823c-1.926,0-2.889-1.075-2.889-3.229
		c0-2.322,1.585-7.107,4.758-14.358c1.813-4.134,4.049-8.496,6.712-13.084c-9.686,7.477-16.964,17.616-21.835,30.416
		c-1.189,2.833-2.774,4.248-4.758,4.248c-0.905,0-1.643-0.34-2.209-1.02c-0.623-0.68-0.935-1.5-0.935-2.464
		c0-3.342,1.869-9.374,5.607-18.097c3.908-9.231,8.326-17.529,13.254-24.894c3.398-5.153,6.032-7.731,7.901-7.731
		c1.699,0,2.549,0.906,2.549,2.719c0,0.794-1.049,2.775-3.144,5.947C876.194,182.27,873.759,186.688,872.57,189.576z"/>
</g>
</svg>
