<?xml version="1.0" encoding="utf-8"?>
<!-- Generator: Adobe Illustrator 15.0.0, SVG Export Plug-In . SVG Version: 6.00 Build 0)  -->
<!DOCTYPE svg PUBLIC "-//W3C//DTD SVG 1.1//EN" "http://www.w3.org/Graphics/SVG/1.1/DTD/svg11.dtd">
<svg version="1.1" id="Warstwa_1" xmlns="http://www.w3.org/2000/svg" xmlns:xlink="http://www.w3.org/1999/xlink" x="0px" y="0px"
	 width="612px" height="665.947px" viewBox="0 0 612 665.947" enable-background="new 0 0 612 665.947" xml:space="preserve">
<g id="logo-symbol_1_">
	<path fill="#E9B776" d="M170.188,152.376c4.033,5.28,11.582,6.289,16.859,2.257c29.544-22.573,64.857-34.504,102.119-34.504
		c92.855,0,168.395,75.538,168.395,168.389c0,92.85-75.538,168.389-168.395,168.389c-92.847,0-168.386-75.538-168.386-168.389
		c0-37.263,11.93-72.576,34.505-102.122c4.034-5.275,3.023-12.826-2.256-16.858c-5.277-4.033-12.826-3.023-16.859,2.256
		c-25.806,33.776-39.443,74.139-39.443,116.724c0,106.113,86.328,192.442,192.438,192.442c106.111,0,192.443-86.331,192.443-192.442
		c0-106.113-86.333-192.444-192.443-192.444c-42.589,0-82.95,13.64-116.72,39.443C167.167,139.55,166.153,147.097,170.188,152.376
		L170.188,152.376z M289.166,31.928c-141.479,0-256.589,115.104-256.589,256.589c0,141.484,115.105,256.59,256.589,256.59
		c141.488,0,256.598-115.103,256.598-256.59C545.76,147.032,430.65,31.928,289.166,31.928z M289.166,521.051
		c-128.213,0-232.533-104.313-232.533-232.54c0-128.22,104.314-232.535,232.533-232.535c128.22,0,232.541,104.315,232.541,232.535
		C521.702,416.737,417.386,521.051,289.166,521.051z"/>
</g>
<g>
	<path fill="#FFFFFF" stroke="#000000" stroke-width="0.25" stroke-miterlimit="10" d="M216.532,200.961
		c2.545-0.607,4.72-0.162,6.522,1.335c1.446,1.181,2.414,2.797,2.903,4.849c0.88,3.687,0.646,8.18-0.7,13.48
		c-1.195,4.583-3.023,8.874-5.482,12.874c-1.629,2.598-3.052,4.041-4.268,4.331c-0.798,0.19-1.634-0.032-2.509-0.667
		c-0.63-0.452-1.03-1.039-1.202-1.761c-0.317-1.33,0.478-3.126,2.389-5.389c2.687-3.21,4.656-6.491,5.904-9.842
		c1.854-4.858,2.436-8.732,1.746-11.62c-0.28-1.178-0.746-1.991-1.395-2.438c-0.649-0.448-1.486-0.549-2.512-0.305
		c-2.091,0.499-4.692,2.726-7.805,6.681c-3.554,4.462-7.06,10.218-10.519,17.268c-4.408,8.963-7.361,17.458-8.859,25.485
		c-1.55,8.321-1.688,15.142-0.42,20.461c0.607,2.546,1.864,4.535,3.772,5.967c2.114,1.625,4.349,2.155,6.705,1.593
		c4.104-0.979,8.509-5.403,13.219-13.273c1.398-2.382,2.988-5.732,4.771-10.053c1.185-2.772,1.907-4.711,2.165-5.818
		c0.308-1.237,0.841-1.947,1.602-2.129c0.835-0.199,1.349,0.1,1.539,0.898c0.408,1.709-0.805,6.056-3.638,13.035
		c-2.346,5.821-5.271,10.816-8.773,14.984c-3.945,4.676-8.046,7.521-12.301,8.536c-4.445,1.061-8.36-0.114-11.743-3.523
		c-2.165-2.174-3.638-4.895-4.418-8.163c-1.957-8.208-0.551-19.486,4.218-33.836c4.073-12.215,9.002-22.447,14.785-30.693
		C207.242,206.128,212.01,202.04,216.532,200.961z"/>
	<path fill="#FFFFFF" stroke="#000000" stroke-width="0.25" stroke-miterlimit="10" d="M264.241,233.795
		c-8.218,3.768-14.956,7.503-20.217,11.208c-2.272,5.964-4.642,13.034-7.107,21.213l-1.757,6.021
		c-0.306,1.078-0.795,2.64-1.472,4.688c-0.717,2.379-1.74,3.729-3.071,4.046c-0.721,0.172-1.396,0.032-2.027-0.42
		c-0.611-0.375-0.99-0.868-1.135-1.477c-0.254-1.063,0.45-4.424,2.112-10.082c0.915-3.069,2.358-7.449,4.335-13.142
		c0.762-2.189,1.359-3.978,1.792-5.367c-2.126,1.19-4.04,2.43-5.739,3.718c-0.813,0.636-1.522,1.026-2.131,1.171
		c-0.759,0.181-1.43-0.02-2.011-0.604c-0.403-0.345-0.674-0.803-0.81-1.373c-0.309-1.291-0.07-2.312,0.715-3.062
		c1.265-1.266,3.675-2.944,7.231-5.038c2.632-1.592,4.693-2.967,6.185-4.126c0.562-1.178,1.958-4.583,4.189-10.216
		c0.944-2.434,3.87-8.352,8.775-17.755c3.504-6.859,7.255-13.356,11.254-19.491c2.312-3.603,4.267-5.596,5.863-5.977
		c0.987-0.235,1.938-0.041,2.85,0.585c0.779,0.578,1.274,1.303,1.483,2.177c0.254,1.064,0.165,3.053-0.264,5.966
		c-0.709,5.108-1.265,10.522-1.668,16.24c-0.321,5.057-0.429,8.897-0.323,11.522c0.684-0.163,1.135-0.291,1.354-0.383
		c1.094-0.3,2.001-0.537,2.723-0.709c2.203-0.525,3.505,0.048,3.903,1.719c0.173,0.722,0.105,1.492-0.202,2.307
		c-0.309,0.817-0.747,1.374-1.318,1.67c-0.21,0.131-0.828,0.318-1.854,0.563c-2.166,0.517-3.75,1.035-4.75,1.554
		c-0.268,2.916-0.067,10.157,0.604,21.723c0.732,7.616,1.316,12.255,1.753,13.918c0.653,2.736,0.161,4.298-1.472,4.688
		c-1.292,0.308-2.458-0.117-3.496-1.274c-0.751-0.785-1.311-1.956-1.682-3.515c-1.251-5.243-2.006-12.533-2.265-21.868
		C264.473,239.905,264.356,236.298,264.241,233.795z M264.369,227.259c0.079-1.183,0.25-4.337,0.514-9.459
		c0.044-1.336,0.323-4.032,0.842-8.092c0.489-4.172,0.877-7.518,1.159-10.035c-2.081,2.224-4.071,4.988-5.973,8.292
		c-6.666,11.791-11.111,21.184-13.337,28.18c1.323-0.677,4.141-2.253,8.45-4.727C257.264,230.721,260.045,229.335,264.369,227.259z"
		/>
	<path fill="#FFFFFF" stroke="#000000" stroke-width="0.25" stroke-miterlimit="10" d="M310.191,187.535
		c-1.45,2.676-3.201,6.949-5.255,12.819c-2.073,5.957-3.496,10.513-4.27,13.668c7.817-3.591,13.303-5.763,16.457-6.516
		c1.519-0.362,2.715-0.486,3.585-0.374c0.984,0.087,1.608,0.681,1.871,1.783c0.563,2.356-0.487,3.851-3.146,4.485
		c-0.152,0.036-0.456,0.108-0.912,0.217c-1.148,0.234-1.989,0.414-2.521,0.541c-3.762,0.897-9.717,3.624-17.867,8.178
		c-3.273,10.861-5.436,23.424-6.49,37.691c-0.09,2.15-0.742,3.37-1.958,3.66c-1.064,0.254-2.099-0.121-3.101-1.128
		c-0.778-0.737-1.271-1.543-1.48-2.417c-0.235-0.987,0.013-4.581,0.742-10.779c1.218-10.209,3.757-21.457,7.612-33.742
		c2.462-7.695,5.226-15.884,8.296-24.568c-1.337,0.119-2.155-0.45-2.454-1.704c-0.444-1.861,1.02-3.716,4.395-5.566
		c4.681-2.602,9.304-4.849,13.872-6.743c5.187-2.16,9.187-3.577,11.999-4.248c4.445-1.061,6.936-0.469,7.471,1.772
		c0.271,1.14-0.02,2.194-0.873,3.16c-0.347,0.404-0.784,0.669-1.316,0.796c-0.456,0.109-1.116,0.206-1.979,0.291
		c-1.337,0.119-2.481,0.291-3.431,0.518c-2.052,0.489-5.414,1.713-10.087,3.671C315.98,184.367,312.929,185.878,310.191,187.535z"/>
	<path fill="#FFFFFF" stroke="#000000" stroke-width="0.25" stroke-miterlimit="10" d="M346.893,202.754l2.185-0.942
		c8.017-3.6,13.678-5.793,16.983-6.582c2.394-0.571,3.821,0.113,4.283,2.051c0.291,1.216,0.01,2.146-0.84,2.79
		c-0.574,0.459-1.63,0.912-3.17,1.359c-9.695,2.956-16.904,5.899-21.626,8.833c-1.299,3.482-2.906,9.789-4.823,18.921
		c-1.102,5.322-1.792,10.166-2.076,14.53c0.802-0.512,1.584-1.02,2.348-1.523c5.169-3.241,9.017-5.464,11.541-6.669
		c3.37-1.527,6.613-2.662,9.729-3.405c2.053-0.49,3.631-0.604,4.736-0.347c0.975,0.21,1.602,0.904,1.883,2.082
		c0.281,1.178-0.066,2.084-1.039,2.717c-0.457,0.271-1.613,0.646-3.466,1.128c-9.941,2.935-18.319,7.543-25.134,13.826
		c-0.89,0.815-1.697,1.309-2.418,1.48c-1.063,0.254-2.146-0.07-3.243-0.973c-0.939-0.74-1.522-1.584-1.75-2.534
		c-0.226-0.95,0.137-4.731,1.09-11.344c1.425-10.018,3.951-21.222,7.583-33.614c1.072-3.75,3.277-10.159,6.617-19.229
		c0.742-2.104,1.456-4.162,2.142-6.173c-1.61-0.017-2.61-0.842-3-2.477c-0.29-1.216,0.104-2.253,1.185-3.114
		c1.757-1.382,5.345-3.182,10.76-5.397c8.089-3.294,15.06-5.64,20.911-7.036c3.306-0.788,5.167-0.309,5.584,1.439
		c0.29,1.216-0.035,2.378-0.976,3.485c-0.471,0.555-1.333,0.98-2.587,1.28c-0.076,0.018-0.517,0.104-1.324,0.255
		c-0.57,0.136-1.197,0.286-1.881,0.449c-2.735,0.652-6.62,1.881-11.651,3.683c-4.365,1.564-8.051,3.206-11.053,4.926
		c0.515,0.479,0.814,0.89,0.896,1.232c0.154,0.646-0.386,2.341-1.618,5.084l-1.73,4.871
		C349.407,194.525,347.723,199.505,346.893,202.754z"/>
	<path fill="#FFFFFF" stroke="#000000" stroke-width="0.25" stroke-miterlimit="10" d="M236.403,373.657
		c-2.18,2.648-4.432,4.993-6.756,7.033c-3.147,2.799-5.291,4.334-6.431,4.605c-1.217,0.291-2.055-0.533-2.518-2.471
		c-0.163-0.684-0.152-1.309,0.035-1.876c0.194-0.528,0.813-1.138,1.853-1.827c3.075-2.26,7.391-6.221,12.947-11.884
		c2.521-2.568,4.388-3.997,5.604-4.288c0.798-0.19,1.614,0.037,2.451,0.68c0.544,0.434,0.89,0.953,1.035,1.561
		c0.227,0.951-0.129,2.742-1.067,5.375c-6.739,20.402-11.008,36.178-12.805,47.329c-0.438,2.716-0.811,4.431-1.122,5.147
		c-0.478,1.197-1.077,1.883-1.799,2.055s-1.511-0.101-2.364-0.82c-0.498-0.404-0.814-0.891-0.95-1.461
		c-0.489-2.052,0.822-9.512,3.937-22.384C231.351,388.336,234,379.411,236.403,373.657z"/>
	<path fill="#FFFFFF" stroke="#000000" stroke-width="0.25" stroke-miterlimit="10" d="M279.695,357.668
		c2.241,0.309,4.076,1.226,5.505,2.753c1.428,1.527,2.47,3.658,3.122,6.394c2.021,8.474,0.863,18.267-3.473,29.381
		c-4.707,12.086-10.348,18.913-16.921,20.481c-3.268,0.779-6.122-0.326-8.563-3.318c-1.589-1.95-2.756-4.482-3.499-7.6
		c-1.795-7.522-0.935-16.121,2.581-25.795c1.825-4.973,4.626-10.32,8.402-16.039c3.968-5.926,7.071-9.156,9.313-9.691
		C277.875,353.825,279.052,354.971,279.695,357.668z M273.265,363.539c-3.576,4.708-6.448,10.092-8.616,16.151
		c-3.107,8.691-3.822,16.553-2.146,23.582c0.498,2.09,1.173,3.656,2.024,4.698c1.384,1.597,2.912,2.196,4.585,1.798
		c2.621-0.625,5.276-3.387,7.963-8.285c2.995-5.453,4.882-11.686,5.659-18.698c0.616-5.327,0.521-9.683-0.285-13.063
		c-0.562-2.355-1.765-4.197-3.606-5.525c-1.27-0.941-2.729-1.256-4.382-0.943C274.043,363.354,273.644,363.448,273.265,363.539z"/>
	<path fill="#FFFFFF" stroke="#000000" stroke-width="0.25" stroke-miterlimit="10" d="M308.071,367.284
		c3.001-0.717,4.879,0.502,5.631,3.656c0.662,2.773,0.245,5.824-1.25,9.152c-1.165,2.527-2.373,3.939-3.627,4.238
		c-1.063,0.254-1.74-0.227-2.03-1.442c-0.154-0.646-0.126-1.194,0.088-1.647c0.078-0.18,0.43-0.725,1.056-1.637
		c0.53-0.809,1.001-1.945,1.415-3.41c0.285-0.991,0.365-1.753,0.238-2.285c-0.146-0.607-0.56-0.83-1.244-0.668
		c-0.797,0.191-1.864,1.107-3.198,2.751c-2.104,2.632-3.935,6.401-5.495,11.311c-1.59,5.118-2.077,8.97-1.461,11.553
		c0.2,0.837,0.624,1.519,1.271,2.046c0.957,0.816,2.044,1.078,3.261,0.789c2.394-0.572,4.87-2.729,7.432-6.473
		c2.165-3.205,3.895-6.309,5.188-9.309c0.652-1.641,1.34-2.549,2.062-2.721c0.418-0.1,0.844,0,1.276,0.299
		c0.395,0.307,0.637,0.65,0.728,1.03c0.335,1.406-0.816,4.573-3.457,9.499c-4.214,7.752-8.658,12.186-13.332,13.3
		c-2.813,0.671-5.199,0.177-7.161-1.483c-1.417-1.229-2.366-2.85-2.847-4.863c-0.942-3.951-0.4-8.92,1.625-14.906
		c1.966-5.729,4.658-10.607,8.074-14.635C304.327,369.101,306.248,367.719,308.071,367.284z"/>
	<path fill="#FFFFFF" stroke="#000000" stroke-width="0.25" stroke-miterlimit="10" d="M333.062,378.61
		c2.395-4.104,4.58-7.396,6.559-9.877c3.005-3.729,5.136-5.742,6.39-6.042c0.607-0.146,1.194-0.044,1.76,0.304
		c0.518,0.318,0.835,0.725,0.953,1.218c0.172,0.722-0.212,2.06-1.152,4.01c-1.436,3.073-2.335,5.616-2.697,7.631
		c6.761-11.05,11.774-16.965,15.043-17.745c0.685-0.162,1.323-0.094,1.917,0.206c0.641,0.329,1.042,0.836,1.206,1.52
		c0.253,1.064-0.238,2.628-1.473,4.688c-5.414,9.123-7.554,16.059-6.421,20.808c0.462,1.938,1.135,3.243,2.019,3.915l1.93,1.528
		c0.386,0.27,0.643,0.671,0.769,1.202c0.146,0.608,0.034,1.237-0.333,1.887c-0.424,0.744-0.999,1.201-1.72,1.373
		c-1.254,0.3-2.604-0.221-4.048-1.563c-1.745-1.591-2.926-3.679-3.542-6.263c-0.825-3.457-0.671-7.189,0.462-11.194
		c0.385-1.417,1.126-3.36,2.224-5.831c-2.649,3.202-5.14,7.33-7.468,12.383c-1.591,3.432-2.872,7.15-3.844,11.157
		c-0.467,1.919-1.289,3.019-2.466,3.3c-1.292,0.308-2.11-0.26-2.455-1.705c-0.371-1.557-0.074-5.021,0.895-10.393
		c0.555-3.063,1.356-6.348,2.409-9.852c-5.302,6.566-8.562,14.532-9.78,23.898c-0.346,2.09-1.182,3.294-2.513,3.611
		c-0.606,0.145-1.156,0.035-1.645-0.33c-0.527-0.357-0.867-0.857-1.021-1.504c-0.535-2.241-0.246-6.588,0.865-13.037
		c1.145-6.818,2.781-13.092,4.908-18.82c1.455-4.001,2.81-6.152,4.063-6.451c1.14-0.271,1.854,0.201,2.145,1.416
		c0.127,0.533-0.26,2.03-1.157,4.492C334.323,373.13,333.396,376.482,333.062,378.61z"/>
</g>
</svg>
